<?xml version="1.0" encoding="utf-8"?>
<!-- Generator: Adobe Illustrator 27.1.0, SVG Export Plug-In . SVG Version: 6.00 Build 0)  -->
<svg version="1.1" id="Layer_1" xmlns="http://www.w3.org/2000/svg" xmlns:xlink="http://www.w3.org/1999/xlink" x="0px" y="0px"
	 viewBox="0 0 319 266.5" style="enable-background:new 0 0 319 266.5;" xml:space="preserve">
<style type="text/css">
	.st0{fill:#FFFFFF;}
</style>
<g>
	<g id="English_Logo_00000145049068180569938810000001304141942725212821_">
		<path class="st0" d="M313.6,99.3h-79.2c-29.6,0-56,23-60.3,52.5l-27.5,23.8L172.4,6.4c0.5-3-1.6-5.9-4.6-6.3
			C167.5,0,167.2,0,167,0H146c-2.9,0-5.3,2.1-5.7,4.9l-4.5,29.3c-5.6,35.9-38.9,65-76.1,65l3.6-23.2c1.1-7.5,5.7-11.3,13.3-11.5H87
			c2.9,0,5.3-2.1,5.8-4.9l3.2-20.9c0.4-3-1.4-6.4-5.5-6.4H80c-17,0-44.1,11.3-48.9,42.3l-3.8,24.7H15.9c-2.1,0-4,1.2-5.1,3
			L0.8,120.1c-1.2,2-1,4.6,0.5,6.4l18.6,21.9L8.5,222.4c-3.3,21.4,6.1,44.1,34.1,44.1c16.1,0,32.5-8.7,42.7-22.8
			c8.3-11.4,23.8-42.6-12.6-85.6l-18.6-21.9l0.7-4.6c0,0,37.4,1,69.8-24.3L113.2,182c-2.6,16.1,8.5,30.3,25.7,30.3
			c8-0.1,15.8-3.1,21.8-8.4l19.7-17.1c9.4,16,26.7,25.8,45.3,25.5c31,0,58.3-25.2,60.8-56.2c0.7-8.4-0.5-16.8-3.6-24.6h27.1
			c2.9,0,5.3-2.1,5.7-4.9l3.2-20.9c0.5-3-1.6-5.9-4.6-6.3C314.1,99.3,313.8,99.3,313.6,99.3 M59.7,226.7c-4.6,6.3-12.3,8.2-16,7.1
			c-1.1-0.3-4.3-1.2-3-10l6.6-43C62.6,199.2,67.3,216.3,59.7,226.7z M254.3,155.5c-1.1,13.5-13,24.6-26.6,24.6
			c-15,0-22.9-12.5-21.9-23.9c1.1-13.5,13-24.6,26.6-24.6C247.6,131.6,255.2,144.3,254.3,155.5L254.3,155.5z M302.9,140.5
			c1,0.6,1.7,1.3,2.3,2.3c0.6,1,0.9,2,0.9,3.2c0,1.2-0.3,2.2-0.9,3.2c-0.6,1-1.3,1.7-2.3,2.3c-1,0.6-2,0.8-3.2,0.8
			c-1.2,0-2.3-0.3-3.2-0.8c-1-0.6-1.7-1.3-2.3-2.3c-0.6-1-0.9-2-0.9-3.2c0-1.2,0.3-2.2,0.9-3.2c0.6-1,1.3-1.7,2.3-2.3
			c1-0.6,2-0.8,3.2-0.8C300.9,139.6,301.9,139.9,302.9,140.5 M302.4,150.6c0.8-0.5,1.5-1.1,2-2c0.5-0.8,0.7-1.7,0.7-2.7
			c0-1-0.2-1.9-0.7-2.7c-0.5-0.8-1.1-1.5-2-2c-0.8-0.5-1.7-0.7-2.7-0.7c-1,0-1.9,0.2-2.7,0.7c-0.8,0.5-1.5,1.1-2,2
			c-0.5,0.8-0.7,1.7-0.7,2.7c0,1,0.2,1.9,0.7,2.7c0.5,0.8,1.1,1.5,2,2c0.8,0.5,1.7,0.7,2.7,0.7C300.7,151.3,301.6,151.1,302.4,150.6
			 M301.5,145.7c-0.2,0.3-0.4,0.4-0.7,0.6c-0.1,0-0.1,0.1-0.1,0.2l0.9,2c0,0,0,0.1,0,0.2c0,0.2-0.1,0.3-0.3,0.3h-0.2
			c-0.2,0-0.4-0.1-0.5-0.3l-0.9-2.1c0-0.1-0.1-0.1-0.1-0.1h-0.6c-0.1,0-0.1,0-0.1,0.1v2c0,0.1,0,0.2-0.1,0.3
			c-0.1,0.1-0.2,0.1-0.3,0.1h-0.1c-0.1,0-0.2,0-0.3-0.1c-0.1-0.1-0.1-0.2-0.1-0.3v-5c0-0.1,0-0.2,0.1-0.3c0.1-0.1,0.2-0.1,0.3-0.1
			h1.6c0.5,0,0.9,0.2,1.2,0.5c0.3,0.3,0.5,0.7,0.5,1.2C301.7,145.1,301.6,145.5,301.5,145.7 M298.9,144v1.6c0,0.1,0,0.1,0.1,0.1h0.9
			c0.3,0,0.5-0.1,0.6-0.2c0.2-0.2,0.2-0.4,0.2-0.7c0-0.3-0.1-0.5-0.2-0.7c-0.2-0.2-0.4-0.3-0.6-0.3h-0.9
			C299,143.8,298.9,143.9,298.9,144"/>
	</g>
</g>
</svg>
